<?xml version="1.0" encoding="utf-8"?>
<svg version="1.1" id="Layer_1" xmlns="http://www.w3.org/2000/svg" xmlns:xlink="http://www.w3.org/1999/xlink" width="16" height="16">
<style type="text/css">
	.st0{fill:#64646C;}
</style>
<path class="st0" d="M8,0C3.6,0,0,3.6,0,8s3.6,8,8,8s8-3.6,8-8S12.4,0,8,0z M8,3c1.1,0,2,0.9,2,2S9,7,8,7C6.9,7,6,6.1,6,5S6.9,3,8,3
	z M8,12c-2,0-4-0.1-4-1.7C4,8,4.9,7.3,5.4,7l0.2-0.1C6.3,7.5,7.1,8,8,8s1.7-0.5,2.3-1.1L10.5,7C11,7.3,12,7.9,12,10.3
	C12,11.9,10,12,8,12z"/>
</svg>
