<?xml version="1.0" encoding="utf-8"?>
<svg version="1.1" id="Layer_1" xmlns="http://www.w3.org/2000/svg" xmlns:xlink="http://www.w3.org/1999/xlink" width="16" height="16">
<style type="text/css">
	.st0{fill:#64646C;}
</style>
<path class="st0" d="M11.5,6L16,1.5L14.5,0L10,4.5V1H8v7h7V6H11.5z"/>
<path class="st0" d="M12.9,12.4c-0.1-0.1-0.3-0.2-0.3-0.2l-2.9-1l-1.8,1.1c-0.1,0.1-1.5-0.2-2.6-1.4L5,10.6C3.7,9.4,3.4,8.2,3.5,8
	l1.3-1.7l-1-2.9c0,0-0.1-0.3-0.2-0.3C3.5,3,2.1,2.8,1.4,3.5C-0.5,5.4-1,7.4,3.6,12.1l0.3,0.3c4.7,4.6,6.7,4.1,8.6,2.2
	C13.2,13.9,13,12.5,12.9,12.4z"/>
</svg>
