<?xml version="1.0" encoding="utf-8"?>
<svg version="1.1" id="Layer_1" xmlns="http://www.w3.org/2000/svg" xmlns:xlink="http://www.w3.org/1999/xlink" width="16" height="16">
<style type="text/css">
	.st0{fill:#64646C;}
</style>
<g>
	<circle class="st0" cx="8" cy="12.5" r="1.5"/>
	<polygon class="st0" points="7.3,10 8.8,10 9.5,1 6.5,1 	"/>
	<path class="st0" d="M5.2,3.4C3.4,4,1.8,5.1,0.7,6.5l1.4,1.4c0.8-1.1,2-1.9,3.3-2.4L5.2,3.4z"/>
	<path class="st0" d="M10.8,3.4l-0.2,2c1.3,0.5,2.4,1.3,3.3,2.4l1.4-1.4C14.2,5.1,12.6,4,10.8,3.4z"/>
	<path class="st0" d="M3.5,9.3L5,10.8c0.2-0.4,0.5-0.7,0.8-0.9L5.6,7.6C4.7,8,4,8.6,3.5,9.3z"/>
	<path class="st0" d="M10.5,7.6l-0.2,2.3c0.3,0.3,0.6,0.6,0.8,0.9l1.5-1.5C12,8.6,11.3,8,10.5,7.6z"/>
</g>
</svg>
